<?xml version="1.0" standalone="no"?>
<!DOCTYPE svg PUBLIC "-//W3C//DTD SVG 20010904//EN"
 "http://www.w3.org/TR/2001/REC-SVG-20010904/DTD/svg10.dtd">
<svg version="1.0" xmlns="http://www.w3.org/2000/svg"
 width="600.000000pt" height="600.000000pt" viewBox="0 0 600.000000 600.000000"
 preserveAspectRatio="xMidYMid meet">
<metadata>
Created by potrace 1.14, written by Peter Selinger 2001-2017
</metadata>
<g transform="translate(0.000000,600.000000) scale(0.100000,-0.100000)"
fill="#000000" stroke="none">
<path d="M0 3000 l0 -3000 3000 0 3000 0 0 3000 0 3000 -3000 0 -3000 0 0
-3000z m1600 720 c0 -250 -1 -270 -17 -270 -10 0 -254 -1 -543 -1 l-525 0 -3
271 -2 270 545 0 545 0 0 -270z m1090 -2 l0 -273 -267 0 -268 0 -3 -272 -2
-273 -275 0 -275 0 0 -270 0 -270 545 0 545 0 0 -275 0 -275 -545 0 -545 0 0
270 0 270 -270 0 -270 0 0 -270 0 -270 -275 0 -275 0 2 273 3 272 268 3 267 2
0 270 0 270 275 0 275 0 0 275 0 275 273 0 272 0 -2 247 c-2 137 0 258 3 271
l6 22 269 0 269 0 0 -272z m1640 2 l0 -270 270 0 270 0 0 270 0 270 275 0 275
0 0 -270 c0 -209 -3 -270 -12 -270 -7 -1 -130 -2 -273 -3 l-260 -2 -2 -260
c-1 -143 -2 -266 -3 -272 0 -10 -61 -13 -270 -13 l-270 0 0 -270 0 -270 543
-2 542 -3 3 -272 2 -273 -545 0 -545 0 0 270 0 270 -275 0 -275 0 0 -270 0
-270 -270 0 -270 0 0 275 0 275 270 0 270 0 0 270 0 270 275 0 275 0 -2 273
-3 272 -543 0 -542 0 0 273 0 272 545 0 545 0 0 -270z"/>
</g>
</svg>
